<svg width="1200" height="300" viewBox="0 0 1200 300" xmlns="http://www.w3.org/2000/svg" shape-rendering="crispEdges">
  <rect width="1200" height="300" fill="#0d1117"/>

  <g fill="#E8E8F0">
    <rect x="80" y="34" width="4" height="4"/>
    <rect x="200" y="70" width="3" height="3"/>
    <rect x="310" y="28" width="4" height="4"/>
    <rect x="430" y="58" width="3" height="3"/>
    <rect x="520" y="22" width="4" height="4"/>
    <rect x="700" y="44" width="3" height="3"/>
    <rect x="820" y="26" width="4" height="4"/>
    <rect x="930" y="64" width="3" height="3"/>
    <rect x="150" y="100" width="3" height="3"/>
    <rect x="640" y="88" width="3" height="3"/>
    <rect x="360" y="96" width="3" height="3"/>
    <rect x="880" y="98" width="3" height="3"/>
    <rect x="250" y="44" width="2" height="2" opacity="0.7"/>
    <rect x="580" y="60" width="2" height="2" opacity="0.7"/>
    <rect x="760" y="80" width="2" height="2" opacity="0.7"/>
    <rect x="1010" y="90" width="2" height="2" opacity="0.7"/>
  </g>
  <g fill="#E8E8F0">
    <rect x="470" y="36" width="4" height="4">
      <animate attributeName="opacity" values="1;0.2;1" dur="3.2s" repeatCount="indefinite"/>
    </rect>
    <rect x="900" y="40" width="4" height="4">
      <animate attributeName="opacity" values="0.3;1;0.3" dur="4.1s" repeatCount="indefinite"/>
    </rect>
    <rect x="120" y="64" width="3" height="3">
      <animate attributeName="opacity" values="1;0.3;1" dur="2.6s" repeatCount="indefinite"/>
    </rect>
    <rect x="680" y="24" width="3" height="3">
      <animate attributeName="opacity" values="0.4;1;0.4" dur="3.7s" repeatCount="indefinite"/>
    </rect>
  </g>

  <g>
    <rect x="1052" y="30" width="56" height="56" fill="#E9E5C9"/>
    <rect x="1052" y="30" width="14" height="14" fill="#CFCBAF"/>
    <rect x="1080" y="58" width="14" height="14" fill="#CFCBAF"/>
    <rect x="1094" y="30" width="14" height="14" fill="#D9D5B9"/>
  </g>

  <g fill="#1E2A1A">
    <rect x="0"   y="150" width="220" height="40"/>
    <rect x="30"  y="130" width="160" height="20"/>
    <rect x="950" y="160" width="250" height="30"/>
    <rect x="980" y="140" width="180" height="20"/>
  </g>

  <rect x="0" y="220" width="1200" height="20" fill="#3E6B26"/>
  <g fill="#2E5219">
    <rect x="0" y="220" width="20" height="20"/><rect x="60" y="220" width="20" height="20"/><rect x="140" y="220" width="20" height="20"/><rect x="220" y="220" width="20" height="20"/><rect x="300" y="220" width="20" height="20"/><rect x="380" y="220" width="20" height="20"/><rect x="460" y="220" width="20" height="20"/><rect x="540" y="220" width="20" height="20"/><rect x="620" y="220" width="20" height="20"/><rect x="700" y="220" width="20" height="20"/><rect x="780" y="220" width="20" height="20"/><rect x="860" y="220" width="20" height="20"/><rect x="940" y="220" width="20" height="20"/><rect x="1020" y="220" width="20" height="20"/><rect x="1100" y="220" width="20" height="20"/><rect x="1180" y="220" width="20" height="20"/>
  </g>

  <rect x="0" y="240" width="1200" height="60" fill="#4A3624"/>
  <g fill="#3C2B1C" opacity="0.7">
    <rect x="10" y="250" width="8" height="8"/><rect x="90" y="255" width="8" height="8"/><rect x="210" y="260" width="8" height="8"/><rect x="340" y="275" width="8" height="8"/><rect x="470" y="285" width="8" height="8"/><rect x="600" y="270" width="8" height="8"/><rect x="720" y="280" width="8" height="8"/><rect x="850" y="272" width="8" height="8"/><rect x="970" y="285" width="8" height="8"/><rect x="1090" y="270" width="8" height="8"/>
  </g>

  <g>
    <rect x="156" y="176" width="8" height="44" fill="#5C4028"/>
    <rect x="154" y="164" width="12" height="14" fill="#FFB82E">
      <animate attributeName="fill" values="#FFB82E;#FF8C1A;#FFD84D;#FFB82E" dur="0.9s" repeatCount="indefinite"/>
    </rect>
    <rect x="157" y="158" width="6" height="8" fill="#FFE08A">
      <animate attributeName="opacity" values="1;0.5;1" dur="0.6s" repeatCount="indefinite"/>
    </rect>
  </g>
  <g>
    <rect x="1036" y="176" width="8" height="44" fill="#5C4028"/>
    <rect x="1034" y="164" width="12" height="14" fill="#FFB82E">
      <animate attributeName="fill" values="#FFD84D;#FFB82E;#FF8C1A;#FFD84D" dur="1.1s" repeatCount="indefinite"/>
    </rect>
    <rect x="1037" y="158" width="6" height="8" fill="#FFE08A">
      <animate attributeName="opacity" values="0.5;1;0.5" dur="0.7s" repeatCount="indefinite"/>
    </rect>
  </g>

  <g fill="#D8FF6E">
    <rect x="0" y="0" width="4" height="4">
      <animateTransform attributeName="transform" type="translate" values="300,180; 330,160; 360,185; 330,200; 300,180" dur="11s" repeatCount="indefinite"/>
      <animate attributeName="opacity" values="0;1;0.2;1;0" dur="11s" repeatCount="indefinite"/>
    </rect>
    <rect x="0" y="0" width="4" height="4">
      <animateTransform attributeName="transform" type="translate" values="760,170; 730,190; 700,168; 740,155; 760,170" dur="13s" repeatCount="indefinite"/>
      <animate attributeName="opacity" values="0;0.9;0.1;0.9;0" dur="13s" repeatCount="indefinite"/>
    </rect>
    <rect x="0" y="0" width="3" height="3">
      <animateTransform attributeName="transform" type="translate" values="520,190; 545,175; 570,195; 540,205; 520,190" dur="9s" begin="2s" repeatCount="indefinite"/>
      <animate attributeName="opacity" values="0;1;0.3;1;0" dur="9s" begin="2s" repeatCount="indefinite"/>
    </rect>
  </g>

  <g transform="translate(600,145)" text-anchor="middle">
    <text x="4" y="4" font-family="'Courier New', monospace" font-weight="700" font-size="58" fill="#000000" letter-spacing="4">KANAK POTDAR</text>
    <text x="0" y="0" font-family="'Courier New', monospace" font-weight="700" font-size="58" fill="#F4F1DE" letter-spacing="4">KANAK POTDAR</text>
  </g>
  <g transform="translate(600,190)" text-anchor="middle">
    <text x="3" y="3" font-family="'Courier New', monospace" font-weight="700" font-size="21" fill="#000000" letter-spacing="3">EMBEDDED SYSTEMS · VEHICLE DYNAMICS · COMPUTER VISION · ML</text>
    <text x="0" y="0" font-family="'Courier New', monospace" font-weight="700" font-size="21" fill="#FFD98A" letter-spacing="3">EMBEDDED SYSTEMS · VEHICLE DYNAMICS · COMPUTER VISION · ML</text>
  </g>
</svg>
