<svg width="800" height="240" viewBox="0 0 800 240" xmlns="http://www.w3.org/2000/svg" shape-rendering="crispEdges">
  <rect x="0" y="0" width="800" height="240" fill="#6B4E2E"/>
  <rect x="0" y="0" width="800" height="8" fill="#7E5E3A"/>
  <rect x="0" y="0" width="8" height="240" fill="#7E5E3A"/>
  <rect x="0" y="232" width="800" height="8" fill="#4E3820"/>
  <rect x="792" y="0" width="8" height="240" fill="#4E3820"/>
  <rect x="16" y="16" width="768" height="208" fill="#15151A"/>
  <rect x="16" y="16" width="768" height="4" fill="#0C0C10"/>
  <rect x="16" y="16" width="4" height="208" fill="#0C0C10"/>

  <rect x="40" y="60" width="96" height="96" fill="#3A3A40"/>
  <rect x="40" y="60" width="96" height="6" fill="#26262B"/>
  <rect x="40" y="60" width="6" height="96" fill="#26262B"/>
  <rect x="40" y="150" width="96" height="6" fill="#55555C"/>
  <rect x="130" y="60" width="6" height="96" fill="#55555C"/>
  <rect x="58" y="78" width="60" height="60" fill="#7F77DD"/>
  <rect x="58" y="78" width="60" height="14" fill="#3C3489"/>
  <rect x="58" y="78" width="14" height="60" fill="#3C3489"/>
  <rect x="94" y="102" width="24" height="36" fill="#3C3489" opacity="0.5"/>

  <text x="170" y="66" font-family="'Courier New', monospace" font-weight="700" font-size="22" letter-spacing="1" fill="#FFD84D">ML VEHICLE BEHAVIOUR ESTIMATOR</text>
  <text x="170" y="104" font-family="'Courier New', monospace" font-weight="700" font-size="17" fill="#B8B8C0">ML model that predicts body roll and</text>
  <text x="170" y="130" font-family="'Courier New', monospace" font-weight="700" font-size="17" fill="#B8B8C0">steering behavior of a vehicle from</text>
  <text x="170" y="156" font-family="'Courier New', monospace" font-weight="700" font-size="17" fill="#B8B8C0">its design specs.</text>
  <text x="170" y="198" font-family="'Courier New', monospace" font-weight="700" font-size="15" letter-spacing="2" fill="#7FDB7F">PYTHON / SKLEARN</text>
</svg>
