<svg width="1200" height="70" viewBox="0 0 1200 70" xmlns="http://www.w3.org/2000/svg" shape-rendering="crispEdges">
  <rect x="0" y="40" width="1200" height="14" fill="#3E6B26"/>
  <g fill="#2E5219">
    <rect x="0" y="40" width="15" height="14"/><rect x="60" y="40" width="15" height="14"/><rect x="120" y="40" width="15" height="14"/><rect x="180" y="40" width="15" height="14"/><rect x="240" y="40" width="15" height="14"/><rect x="300" y="40" width="15" height="14"/><rect x="360" y="40" width="15" height="14"/><rect x="420" y="40" width="15" height="14"/><rect x="480" y="40" width="15" height="14"/><rect x="540" y="40" width="15" height="14"/><rect x="600" y="40" width="15" height="14"/><rect x="660" y="40" width="15" height="14"/><rect x="720" y="40" width="15" height="14"/><rect x="780" y="40" width="15" height="14"/><rect x="840" y="40" width="15" height="14"/><rect x="900" y="40" width="15" height="14"/><rect x="960" y="40" width="15" height="14"/><rect x="1020" y="40" width="15" height="14"/><rect x="1080" y="40" width="15" height="14"/><rect x="1140" y="40" width="15" height="14"/>
  </g>
  <rect x="0" y="54" width="1200" height="16" fill="#4A3624"/>
  <g fill="#3C2B1C" opacity="0.7">
    <rect x="30" y="58" width="6" height="6"/><rect x="290" y="57" width="6" height="6"/><rect x="570" y="58" width="6" height="6"/><rect x="850" y="57" width="6" height="6"/><rect x="1130" y="58" width="6" height="6"/>
  </g>

  <g>
    <rect x="118" y="24" width="4" height="16" fill="#2E5A1E"/>
    <rect x="112" y="14" width="16" height="12" fill="#B32E2E"/>
    <rect x="116" y="10" width="8" height="6" fill="#B32E2E"/>
    <rect x="117" y="18" width="6" height="5" fill="#D9B23A"/>
  </g>
  <g>
    <rect x="438" y="26" width="4" height="14" fill="#2E5A1E"/>
    <rect x="432" y="14" width="16" height="12" fill="#D9C43A"/>
    <rect x="436" y="10" width="8" height="6" fill="#D9C43A"/>
    <rect x="437" y="18" width="6" height="5" fill="#A3730E"/>
  </g>
  <g>
    <rect x="758" y="24" width="4" height="16" fill="#2E5A1E"/>
    <rect x="752" y="12" width="16" height="14" fill="#5A8FC4"/>
    <rect x="756" y="8"  width="8" height="6" fill="#5A8FC4"/>
    <rect x="757" y="17" width="6" height="5" fill="#2E5788"/>
  </g>
  <g>
    <rect x="1078" y="26" width="4" height="14" fill="#2E5A1E"/>
    <rect x="1072" y="14" width="16" height="12" fill="#C482A8"/>
    <rect x="1076" y="10" width="8" height="6" fill="#C482A8"/>
    <rect x="1077" y="18" width="6" height="5" fill="#8F3A66"/>
  </g>

  <g>
    <rect x="278" y="14" width="6" height="26" fill="#5C4028"/>
    <rect x="276" y="4" width="10" height="12" fill="#FFB82E">
      <animate attributeName="fill" values="#FFB82E;#FF8C1A;#FFD84D;#FFB82E" dur="0.9s" repeatCount="indefinite"/>
    </rect>
    <rect x="279" y="0" width="4" height="6" fill="#FFE08A">
      <animate attributeName="opacity" values="1;0.5;1" dur="0.6s" repeatCount="indefinite"/>
    </rect>
  </g>
  <g>
    <rect x="918" y="14" width="6" height="26" fill="#5C4028"/>
    <rect x="916" y="4" width="10" height="12" fill="#FFB82E">
      <animate attributeName="fill" values="#FFD84D;#FFB82E;#FF8C1A;#FFD84D" dur="1.1s" repeatCount="indefinite"/>
    </rect>
    <rect x="919" y="0" width="4" height="6" fill="#FFE08A">
      <animate attributeName="opacity" values="0.5;1;0.5" dur="0.7s" repeatCount="indefinite"/>
    </rect>
  </g>

  <g fill="#D8FF6E">
    <rect x="0" y="0" width="4" height="4">
      <animateTransform attributeName="transform" type="translate" values="560,20; 590,10; 620,24; 590,32; 560,20" dur="12s" repeatCount="indefinite"/>
      <animate attributeName="opacity" values="0;1;0.2;1;0" dur="12s" repeatCount="indefinite"/>
    </rect>
    <rect x="0" y="0" width="3" height="3">
      <animateTransform attributeName="transform" type="translate" values="60,24; 40,14; 20,26; 45,32; 60,24" dur="10s" begin="3s" repeatCount="indefinite"/>
      <animate attributeName="opacity" values="0;0.9;0.2;0.9;0" dur="10s" begin="3s" repeatCount="indefinite"/>
    </rect>
  </g>
</svg>
