<svg width="1200" height="70" viewBox="0 0 1200 70" xmlns="http://www.w3.org/2000/svg" shape-rendering="crispEdges">
  <rect x="0" y="40" width="1200" height="14" fill="#63A83C"/>
  <g fill="#4C8A2E">
    <rect x="0" y="40" width="15" height="14"/><rect x="60" y="40" width="15" height="14"/><rect x="120" y="40" width="15" height="14"/><rect x="180" y="40" width="15" height="14"/><rect x="240" y="40" width="15" height="14"/><rect x="300" y="40" width="15" height="14"/><rect x="360" y="40" width="15" height="14"/><rect x="420" y="40" width="15" height="14"/><rect x="480" y="40" width="15" height="14"/><rect x="540" y="40" width="15" height="14"/><rect x="600" y="40" width="15" height="14"/><rect x="660" y="40" width="15" height="14"/><rect x="720" y="40" width="15" height="14"/><rect x="780" y="40" width="15" height="14"/><rect x="840" y="40" width="15" height="14"/><rect x="900" y="40" width="15" height="14"/><rect x="960" y="40" width="15" height="14"/><rect x="1020" y="40" width="15" height="14"/><rect x="1080" y="40" width="15" height="14"/><rect x="1140" y="40" width="15" height="14"/>
  </g>
  <rect x="0" y="54" width="1200" height="16" fill="#7B5A3A"/>
  <g fill="#6B4C2E" opacity="0.6">
    <rect x="30" y="58" width="6" height="6"/><rect x="150" y="61" width="6" height="6"/><rect x="290" y="57" width="6" height="6"/><rect x="430" y="62" width="6" height="6"/><rect x="570" y="58" width="6" height="6"/><rect x="710" y="61" width="6" height="6"/><rect x="850" y="57" width="6" height="6"/><rect x="990" y="62" width="6" height="6"/><rect x="1130" y="58" width="6" height="6"/>
  </g>

  <g>
    <rect x="98" y="24" width="4" height="16" fill="#3E7A2A"/>
    <rect x="92" y="14" width="16" height="12" fill="#E33B3B"/>
    <rect x="96" y="10" width="8" height="6" fill="#E33B3B"/>
    <rect x="97" y="18" width="6" height="5" fill="#FFD84D"/>
  </g>
  <g>
    <rect x="338" y="26" width="4" height="14" fill="#3E7A2A"/>
    <rect x="332" y="14" width="16" height="12" fill="#FFE94D"/>
    <rect x="336" y="10" width="8" height="6" fill="#FFE94D"/>
    <rect x="337" y="18" width="6" height="5" fill="#C98B12"/>
  </g>
  <g>
    <rect x="598" y="24" width="4" height="16" fill="#3E7A2A"/>
    <rect x="592" y="12" width="16" height="14" fill="#7FB8F0"/>
    <rect x="596" y="8"  width="8" height="6" fill="#7FB8F0"/>
    <rect x="597" y="17" width="6" height="5" fill="#3B6FB0"/>
  </g>
  <g>
    <rect x="858" y="26" width="4" height="14" fill="#3E7A2A"/>
    <rect x="852" y="14" width="16" height="12" fill="#F0A0C8"/>
    <rect x="856" y="10" width="8" height="6" fill="#F0A0C8"/>
    <rect x="857" y="18" width="6" height="5" fill="#B84D86"/>
  </g>
  <g>
    <rect x="1108" y="24" width="4" height="16" fill="#3E7A2A"/>
    <rect x="1102" y="14" width="16" height="12" fill="#E33B3B"/>
    <rect x="1106" y="10" width="8" height="6" fill="#E33B3B"/>
    <rect x="1107" y="18" width="6" height="5" fill="#FFD84D"/>
  </g>

  <g>
    <animateTransform attributeName="transform" type="translate" values="-60,0; 1260,0" dur="22s" repeatCount="indefinite"/>
    <g>
      <animateTransform attributeName="transform" type="translate" values="0,0; 0,-6; 0,0" dur="1.6s" repeatCount="indefinite" additive="sum"/>
      <rect x="0" y="18" width="18" height="12" fill="#FFD23B"/>
      <rect x="4" y="18" width="4" height="12" fill="#2B2B2B"/>
      <rect x="12" y="18" width="3" height="12" fill="#2B2B2B"/>
      <rect x="18" y="21" width="4" height="6" fill="#2B2B2B"/>
      <g fill="#CFE9F5" opacity="0.9">
        <rect x="3" y="12" width="8" height="6">
          <animate attributeName="opacity" values="0.9;0.4;0.9" dur="0.25s" repeatCount="indefinite"/>
        </rect>
        <rect x="9" y="12" width="8" height="6">
          <animate attributeName="opacity" values="0.4;0.9;0.4" dur="0.25s" repeatCount="indefinite"/>
        </rect>
      </g>
    </g>
  </g>
</svg>
