<svg width="1200" height="200" viewBox="0 0 1200 200" xmlns="http://www.w3.org/2000/svg" shape-rendering="crispEdges">
  <g fill="#E8E8F0">
    <rect x="100" y="14" width="3" height="3"/>
    <rect x="300" y="30" width="3" height="3"/>
    <rect x="500" y="10" width="4" height="4"/>
    <rect x="700" y="26" width="3" height="3"/>
    <rect x="880" y="12" width="3" height="3"/>
    <rect x="200" y="44" width="2" height="2" opacity="0.7"/>
    <rect x="620" y="48" width="2" height="2" opacity="0.7"/>
    <rect x="420" y="34" width="3" height="3">
      <animate attributeName="opacity" values="1;0.2;1" dur="3.4s" repeatCount="indefinite"/>
    </rect>
    <rect x="790" y="42" width="3" height="3">
      <animate attributeName="opacity" values="0.3;1;0.3" dur="2.8s" repeatCount="indefinite"/>
    </rect>
  </g>

  <g>
    <rect x="1000" y="60" width="16" height="80" fill="#453020"/>
    <rect x="992" y="44" width="16" height="24" fill="#453020"/>
    <g fill="#C488A8">
      <rect x="944" y="20" width="48" height="32"/>
      <rect x="976" y="4" width="72" height="40"/>
      <rect x="1040" y="20" width="48" height="32"/>
      <rect x="928" y="36" width="32" height="24"/>
      <rect x="1080" y="36" width="32" height="24"/>
      <rect x="960" y="48" width="96" height="20"/>
    </g>
    <g fill="#A86A8C">
      <rect x="952" y="28" width="12" height="12"/>
      <rect x="1000" y="12" width="12" height="12"/>
      <rect x="1056" y="28" width="12" height="12"/>
      <rect x="984" y="52" width="12" height="12"/>
      <rect x="1036" y="48" width="12" height="12"/>
    </g>
  </g>

  <g fill="#C488A8">
    <rect x="0" y="0" width="8" height="8">
      <animateTransform attributeName="transform" type="translate" values="960,50; 940,150" dur="7s" repeatCount="indefinite"/>
      <animate attributeName="opacity" values="1;1;0" keyTimes="0;0.85;1" dur="7s" repeatCount="indefinite"/>
    </rect>
    <rect x="0" y="0" width="8" height="8">
      <animateTransform attributeName="transform" type="translate" values="1020,55; 1050,150" dur="9s" begin="2s" repeatCount="indefinite"/>
      <animate attributeName="opacity" values="1;1;0" keyTimes="0;0.85;1" dur="9s" begin="2s" repeatCount="indefinite"/>
    </rect>
    <rect x="0" y="0" width="6" height="6">
      <animateTransform attributeName="transform" type="translate" values="1070,45; 1100,150" dur="8s" begin="4s" repeatCount="indefinite"/>
      <animate attributeName="opacity" values="1;1;0" keyTimes="0;0.85;1" dur="8s" begin="4s" repeatCount="indefinite"/>
    </rect>
    <rect x="0" y="0" width="6" height="6">
      <animateTransform attributeName="transform" type="translate" values="990,60; 970,150" dur="6s" begin="1s" repeatCount="indefinite"/>
      <animate attributeName="opacity" values="1;1;0" keyTimes="0;0.85;1" dur="6s" begin="1s" repeatCount="indefinite"/>
    </rect>
  </g>

  <g>
    <rect x="118" y="120" width="4" height="26" fill="#2E5A1E"/>
    <rect x="112" y="108" width="16" height="14" fill="#B32E2E"/>
    <rect x="116" y="104" width="8" height="6" fill="#B32E2E"/>
    <rect x="117" y="113" width="6" height="5" fill="#D9B23A"/>
  </g>
  <g>
    <rect x="338" y="124" width="4" height="22" fill="#2E5A1E"/>
    <rect x="332" y="112" width="16" height="14" fill="#D9C43A"/>
    <rect x="336" y="108" width="8" height="6" fill="#D9C43A"/>
    <rect x="337" y="117" width="6" height="5" fill="#A3730E"/>
  </g>
  <g>
    <rect x="558" y="120" width="4" height="26" fill="#2E5A1E"/>
    <rect x="552" y="106" width="16" height="16" fill="#5A8FC4"/>
    <rect x="556" y="102" width="8" height="6" fill="#5A8FC4"/>
    <rect x="557" y="112" width="6" height="5" fill="#2E5788"/>
  </g>
  <g>
    <rect x="778" y="122" width="4" height="24" fill="#2E5A1E"/>
    <rect x="772" y="110" width="16" height="14" fill="#C482A8"/>
    <rect x="776" y="106" width="8" height="6" fill="#C482A8"/>
    <rect x="777" y="115" width="6" height="5" fill="#8F3A66"/>
  </g>

  <g>
    <rect x="228" y="94" width="8" height="52" fill="#5C4028"/>
    <rect x="226" y="82" width="12" height="14" fill="#FFB82E">
      <animate attributeName="fill" values="#FFB82E;#FF8C1A;#FFD84D;#FFB82E" dur="0.9s" repeatCount="indefinite"/>
    </rect>
    <rect x="229" y="76" width="6" height="8" fill="#FFE08A">
      <animate attributeName="opacity" values="1;0.5;1" dur="0.6s" repeatCount="indefinite"/>
    </rect>
  </g>
  <g>
    <rect x="668" y="94" width="8" height="52" fill="#5C4028"/>
    <rect x="666" y="82" width="12" height="14" fill="#FFB82E">
      <animate attributeName="fill" values="#FFD84D;#FFB82E;#FF8C1A;#FFD84D" dur="1.1s" repeatCount="indefinite"/>
    </rect>
    <rect x="669" y="76" width="6" height="8" fill="#FFE08A">
      <animate attributeName="opacity" values="0.5;1;0.5" dur="0.7s" repeatCount="indefinite"/>
    </rect>
  </g>

  <g fill="#D8FF6E">
    <rect x="0" y="0" width="4" height="4">
      <animateTransform attributeName="transform" type="translate" values="420,110; 460,90; 500,115; 455,125; 420,110" dur="12s" repeatCount="indefinite"/>
      <animate attributeName="opacity" values="0;1;0.2;1;0" dur="12s" repeatCount="indefinite"/>
    </rect>
    <rect x="0" y="0" width="4" height="4">
      <animateTransform attributeName="transform" type="translate" values="860,100; 830,85; 800,105; 835,118; 860,100" dur="14s" begin="2s" repeatCount="indefinite"/>
      <animate attributeName="opacity" values="0;0.9;0.1;0.9;0" dur="14s" begin="2s" repeatCount="indefinite"/>
    </rect>
    <rect x="0" y="0" width="3" height="3">
      <animateTransform attributeName="transform" type="translate" values="60,105; 90,88; 120,108; 85,120; 60,105" dur="10s" begin="4s" repeatCount="indefinite"/>
      <animate attributeName="opacity" values="0;1;0.3;1;0" dur="10s" begin="4s" repeatCount="indefinite"/>
    </rect>
    <rect x="0" y="0" width="3" height="3">
      <animateTransform attributeName="transform" type="translate" values="1150,108; 1120,92; 1095,112; 1125,122; 1150,108" dur="11s" begin="1s" repeatCount="indefinite"/>
      <animate attributeName="opacity" values="0;0.9;0.2;0.9;0" dur="11s" begin="1s" repeatCount="indefinite"/>
    </rect>
  </g>

  <rect x="0" y="146" width="1200" height="18" fill="#3E6B26"/>
  <g fill="#2E5219">
    <rect x="0" y="146" width="18" height="18"/><rect x="72" y="146" width="18" height="18"/><rect x="144" y="146" width="18" height="18"/><rect x="216" y="146" width="18" height="18"/><rect x="288" y="146" width="18" height="18"/><rect x="360" y="146" width="18" height="18"/><rect x="432" y="146" width="18" height="18"/><rect x="504" y="146" width="18" height="18"/><rect x="576" y="146" width="18" height="18"/><rect x="648" y="146" width="18" height="18"/><rect x="720" y="146" width="18" height="18"/><rect x="792" y="146" width="18" height="18"/><rect x="864" y="146" width="18" height="18"/><rect x="936" y="146" width="18" height="18"/><rect x="1008" y="146" width="18" height="18"/><rect x="1080" y="146" width="18" height="18"/><rect x="1152" y="146" width="18" height="18"/>
  </g>
  <rect x="0" y="164" width="1200" height="24" fill="#4A3624"/>
  <g fill="#3C2B1C" opacity="0.7">
    <rect x="40" y="170" width="7" height="7"/><rect x="330" y="169" width="7" height="7"/><rect x="640" y="170" width="7" height="7"/><rect x="950" y="169" width="7" height="7"/>
  </g>
  <rect x="0" y="188" width="1200" height="12" fill="#26262B"/>
  <g fill="#15151A">
    <rect x="20" y="190" width="10" height="8"/><rect x="230" y="189" width="10" height="8"/><rect x="450" y="190" width="10" height="8"/><rect x="670" y="189" width="10" height="8"/><rect x="890" y="190" width="10" height="8"/><rect x="1110" y="189" width="10" height="8"/>
  </g>
</svg>
