<svg width="1200" height="200" viewBox="0 0 1200 200" xmlns="http://www.w3.org/2000/svg" shape-rendering="crispEdges">
  <g>
    <rect x="1000" y="60" width="16" height="80" fill="#5C4028"/>
    <rect x="992" y="44" width="16" height="24" fill="#5C4028"/>
    <g fill="#F5AFD0">
      <rect x="944" y="20" width="48" height="32"/>
      <rect x="976" y="4" width="72" height="40"/>
      <rect x="1040" y="20" width="48" height="32"/>
      <rect x="928" y="36" width="32" height="24"/>
      <rect x="1080" y="36" width="32" height="24"/>
      <rect x="960" y="48" width="96" height="20"/>
    </g>
    <g fill="#E88BBB">
      <rect x="952" y="28" width="12" height="12"/>
      <rect x="1000" y="12" width="12" height="12"/>
      <rect x="1056" y="28" width="12" height="12"/>
      <rect x="984" y="52" width="12" height="12"/>
      <rect x="1036" y="48" width="12" height="12"/>
    </g>
  </g>

  <g fill="#F5AFD0">
    <rect x="0" y="0" width="8" height="8">
      <animateTransform attributeName="transform" type="translate" values="960,50; 940,150" dur="7s" repeatCount="indefinite"/>
      <animate attributeName="opacity" values="1;1;0" keyTimes="0;0.85;1" dur="7s" repeatCount="indefinite"/>
    </rect>
    <rect x="0" y="0" width="8" height="8">
      <animateTransform attributeName="transform" type="translate" values="1020,55; 1050,150" dur="9s" begin="2s" repeatCount="indefinite"/>
      <animate attributeName="opacity" values="1;1;0" keyTimes="0;0.85;1" dur="9s" begin="2s" repeatCount="indefinite"/>
    </rect>
    <rect x="0" y="0" width="6" height="6">
      <animateTransform attributeName="transform" type="translate" values="1070,45; 1100,150" dur="8s" begin="4s" repeatCount="indefinite"/>
      <animate attributeName="opacity" values="1;1;0" keyTimes="0;0.85;1" dur="8s" begin="4s" repeatCount="indefinite"/>
    </rect>
    <rect x="0" y="0" width="6" height="6">
      <animateTransform attributeName="transform" type="translate" values="990,60; 970,150" dur="6s" begin="1s" repeatCount="indefinite"/>
      <animate attributeName="opacity" values="1;1;0" keyTimes="0;0.85;1" dur="6s" begin="1s" repeatCount="indefinite"/>
    </rect>
  </g>

  <g>
    <rect x="118" y="120" width="4" height="26" fill="#3E7A2A"/>
    <rect x="112" y="108" width="16" height="14" fill="#E33B3B"/>
    <rect x="116" y="104" width="8" height="6" fill="#E33B3B"/>
    <rect x="117" y="113" width="6" height="5" fill="#FFD84D"/>
  </g>
  <g>
    <rect x="258" y="124" width="4" height="22" fill="#3E7A2A"/>
    <rect x="252" y="112" width="16" height="14" fill="#FFE94D"/>
    <rect x="256" y="108" width="8" height="6" fill="#FFE94D"/>
    <rect x="257" y="117" width="6" height="5" fill="#C98B12"/>
  </g>
  <g>
    <rect x="418" y="120" width="4" height="26" fill="#3E7A2A"/>
    <rect x="412" y="106" width="16" height="16" fill="#7FB8F0"/>
    <rect x="416" y="102" width="8" height="6" fill="#7FB8F0"/>
    <rect x="417" y="112" width="6" height="5" fill="#3B6FB0"/>
  </g>
  <g>
    <rect x="578" y="124" width="4" height="22" fill="#3E7A2A"/>
    <rect x="572" y="112" width="16" height="14" fill="#F0A0C8"/>
    <rect x="576" y="108" width="8" height="6" fill="#F0A0C8"/>
    <rect x="577" y="117" width="6" height="5" fill="#B84D86"/>
  </g>
  <g>
    <rect x="738" y="122" width="4" height="24" fill="#3E7A2A"/>
    <rect x="732" y="110" width="16" height="14" fill="#E33B3B"/>
    <rect x="736" y="106" width="8" height="6" fill="#E33B3B"/>
    <rect x="737" y="115" width="6" height="5" fill="#FFD84D"/>
  </g>
  <g>
    <rect x="868" y="124" width="4" height="22" fill="#3E7A2A"/>
    <rect x="862" y="112" width="16" height="14" fill="#FFE94D"/>
    <rect x="866" y="108" width="8" height="6" fill="#FFE94D"/>
    <rect x="867" y="117" width="6" height="5" fill="#C98B12"/>
  </g>

  <rect x="0" y="146" width="1200" height="18" fill="#63A83C"/>
  <g fill="#4C8A2E">
    <rect x="0" y="146" width="18" height="18"/><rect x="72" y="146" width="18" height="18"/><rect x="144" y="146" width="18" height="18"/><rect x="216" y="146" width="18" height="18"/><rect x="288" y="146" width="18" height="18"/><rect x="360" y="146" width="18" height="18"/><rect x="432" y="146" width="18" height="18"/><rect x="504" y="146" width="18" height="18"/><rect x="576" y="146" width="18" height="18"/><rect x="648" y="146" width="18" height="18"/><rect x="720" y="146" width="18" height="18"/><rect x="792" y="146" width="18" height="18"/><rect x="864" y="146" width="18" height="18"/><rect x="936" y="146" width="18" height="18"/><rect x="1008" y="146" width="18" height="18"/><rect x="1080" y="146" width="18" height="18"/><rect x="1152" y="146" width="18" height="18"/>
  </g>
  <rect x="0" y="164" width="1200" height="24" fill="#7B5A3A"/>
  <g fill="#6B4C2E" opacity="0.6">
    <rect x="40" y="170" width="7" height="7"/><rect x="180" y="174" width="7" height="7"/><rect x="330" y="169" width="7" height="7"/><rect x="490" y="175" width="7" height="7"/><rect x="640" y="170" width="7" height="7"/><rect x="800" y="174" width="7" height="7"/><rect x="950" y="169" width="7" height="7"/><rect x="1100" y="175" width="7" height="7"/>
  </g>
  <rect x="0" y="188" width="1200" height="12" fill="#3F3F3F"/>
  <g fill="#2B2B2B">
    <rect x="20" y="190" width="10" height="8"/><rect x="120" y="192" width="10" height="8"/><rect x="230" y="189" width="10" height="8"/><rect x="340" y="191" width="10" height="8"/><rect x="450" y="190" width="10" height="8"/><rect x="560" y="192" width="10" height="8"/><rect x="670" y="189" width="10" height="8"/><rect x="780" y="191" width="10" height="8"/><rect x="890" y="190" width="10" height="8"/><rect x="1000" y="192" width="10" height="8"/><rect x="1110" y="189" width="10" height="8"/>
  </g>

  <g>
    <animateTransform attributeName="transform" type="translate" values="-80,0; 1280,0" dur="18s" repeatCount="indefinite"/>
    <g>
      <animateTransform attributeName="transform" type="translate" values="0,60; 0,50; 0,60" dur="1.4s" repeatCount="indefinite" additive="sum"/>
      <rect x="0" y="30" width="20" height="13" fill="#FFD23B"/>
      <rect x="4" y="30" width="4" height="13" fill="#2B2B2B"/>
      <rect x="13" y="30" width="3" height="13" fill="#2B2B2B"/>
      <rect x="20" y="34" width="4" height="6" fill="#2B2B2B"/>
      <g fill="#CFE9F5" opacity="0.9">
        <rect x="4" y="23" width="8" height="7">
          <animate attributeName="opacity" values="0.9;0.4;0.9" dur="0.22s" repeatCount="indefinite"/>
        </rect>
        <rect x="10" y="23" width="8" height="7">
          <animate attributeName="opacity" values="0.4;0.9;0.4" dur="0.22s" repeatCount="indefinite"/>
        </rect>
      </g>
    </g>
  </g>
  <g>
    <animateTransform attributeName="transform" type="translate" values="1280,0; -80,0" dur="26s" begin="5s" repeatCount="indefinite"/>
    <g>
      <animateTransform attributeName="transform" type="translate" values="0,85; 0,75; 0,85" dur="1.8s" repeatCount="indefinite" additive="sum"/>
      <rect x="0" y="30" width="16" height="11" fill="#FFD23B"/>
      <rect x="3" y="30" width="3" height="11" fill="#2B2B2B"/>
      <rect x="10" y="30" width="3" height="11" fill="#2B2B2B"/>
      <rect x="-4" y="33" width="4" height="5" fill="#2B2B2B"/>
      <g fill="#CFE9F5" opacity="0.9">
        <rect x="3" y="24" width="7" height="6">
          <animate attributeName="opacity" values="0.9;0.4;0.9" dur="0.22s" repeatCount="indefinite"/>
        </rect>
      </g>
    </g>
  </g>
</svg>
