<svg width="900" height="100" viewBox="0 0 900 100" xmlns="http://www.w3.org/2000/svg" shape-rendering="crispEdges">
  <rect x="0" y="0" width="900" height="100" fill="#C6C6C6" stroke="#373737" stroke-width="4"/>
  <rect x="4" y="4" width="892" height="92" fill="#8B8B8B"/>

  <g font-family="'Courier New', monospace" font-weight="700" font-size="13" text-anchor="middle">
    <!-- 9 slots -->
    <g>
      <rect x="14"  y="14" width="84" height="72" fill="#8B8B8B" stroke="#373737" stroke-width="3"/>
      <rect x="118" y="14" width="84" height="72" fill="#8B8B8B" stroke="#373737" stroke-width="3"/>
      <rect x="222" y="14" width="84" height="72" fill="#8B8B8B" stroke="#373737" stroke-width="3"/>
      <rect x="326" y="14" width="84" height="72" fill="#8B8B8B" stroke="#373737" stroke-width="3"/>
      <rect x="430" y="14" width="84" height="72" fill="#8B8B8B" stroke="#373737" stroke-width="3"/>
      <rect x="534" y="14" width="84" height="72" fill="#8B8B8B" stroke="#373737" stroke-width="3"/>
      <rect x="638" y="14" width="84" height="72" fill="#8B8B8B" stroke="#373737" stroke-width="3"/>
      <rect x="742" y="14" width="84" height="72" fill="#8B8B8B" stroke="#373737" stroke-width="3"/>
    </g>

    <!-- item swatches -->
    <rect x="30"  y="30" width="24" height="24" fill="#3776AB"/>
    <rect x="134" y="30" width="24" height="24" fill="#00599C"/>
    <rect x="238" y="30" width="24" height="24" fill="#00979D"/>
    <rect x="342" y="30" width="24" height="24" fill="#EE4C2C"/>
    <rect x="446" y="30" width="24" height="24" fill="#5C3EE8"/>
    <rect x="550" y="30" width="24" height="24" fill="#F7931E"/>
    <rect x="654" y="30" width="24" height="24" fill="#F05032"/>
    <rect x="758" y="30" width="24" height="24" fill="#181717"/>

    <text x="56"  y="76" fill="#1F1F1F">PYTHON</text>
    <text x="160" y="76" fill="#1F1F1F">C/C++</text>
    <text x="264" y="76" fill="#1F1F1F">ARDUINO</text>
    <text x="368" y="76" fill="#1F1F1F">PYTORCH</text>
    <text x="472" y="76" fill="#1F1F1F">OPENCV</text>
    <text x="576" y="76" fill="#1F1F1F">SKLEARN</text>
    <text x="680" y="76" fill="#1F1F1F">GIT</text>
    <text x="784" y="76" fill="#1F1F1F">GITHUB</text>
  </g>
</svg>
